<svg version="1.1" id="Layer_1" xmlns="http://www.w3.org/2000/svg" xmlns:xlink="http://www.w3.org/1999/xlink" x="0px" y="0px"
	 width="100%" viewBox="0 0 1024 1024" enable-background="new 0 0 1024 1024" xml:space="preserve">
<path fill="#000000" opacity="1.000000" stroke="none" 
	d="
M220.883209,500.112610 
	C223.772415,441.312073 241.179489,387.917145 274.941162,340.059937 
	C318.613098,278.154968 378.028687,239.452377 451.455688,222.894348 
	C528.337402,205.557266 600.617310,219.275925 666.913025,261.270111 
	C730.008179,301.236877 772.856750,357.519409 793.894470,429.388733 
	C804.450806,465.451599 807.494568,502.471161 803.572083,540.131104 
	C797.363098,599.745544 775.483948,652.698792 736.957275,698.374023 
	C691.007507,752.849854 632.517517,786.441406 562.372864,799.387390 
	C507.252747,809.560425 453.558838,804.449158 401.680267,783.005615 
	C354.908539,763.672852 316.503632,733.276428 285.082092,693.751282 
	C253.525558,654.056335 233.508530,609.218872 224.957626,559.314392 
	C221.634384,539.919434 220.343231,520.301453 220.883209,500.112610 
M275.210968,377.647095 
	C241.438797,438.480530 232.220245,502.922272 247.087814,570.804199 
	C258.177826,621.438721 282.284180,665.434631 318.378693,702.193726 
	C385.635986,770.689453 467.613129,795.523987 561.686035,778.944824 
	C617.516846,769.105347 665.805420,743.050293 705.808716,702.943848 
	C748.367249,660.275574 774.307739,608.856079 782.918518,548.887146 
	C787.464355,517.228333 786.731812,485.767914 780.134949,454.554993 
	C767.772156,396.060822 738.724487,346.874176 694.270508,307.292175 
	C638.700623,257.812622 573.543274,233.696701 498.729492,237.052185 
	C458.623566,238.850967 420.905060,249.284653 385.624603,268.330414 
	C338.394745,293.826965 301.156952,329.545685 275.210968,377.647095 
z"/>
<path fill="#000000" opacity="1.000000" stroke="none" 
	d="
M502.807404,369.562897 
	C541.601868,368.600555 579.927979,369.307922 618.249146,368.999451 
	C624.845215,368.946381 625.062683,369.244324 625.079163,375.659454 
	C625.108704,387.157349 624.984131,398.658752 625.246155,410.151337 
	C625.341492,414.331757 623.960388,415.487701 619.824097,415.476990 
	C569.166321,415.345428 518.508057,415.391510 467.849945,415.387238 
	C460.129578,415.386597 460.105194,415.376373 460.101227,423.099152 
	C460.093323,438.596497 460.270721,454.096252 460.030914,469.589752 
	C459.957214,474.353546 461.405670,475.881500 466.251770,475.854248 
	C501.578156,475.655670 536.906006,475.715546 572.233398,475.702026 
	C579.049438,475.699402 579.040405,475.716187 579.057983,482.699585 
	C579.083557,492.864502 579.139587,503.029297 579.151978,513.194214 
	C579.159973,519.725403 578.969849,519.969727 572.446777,519.981995 
	C537.786011,520.047363 503.125275,520.072510 468.464539,520.108215 
	C460.163574,520.116760 460.138580,520.110840 460.129395,528.184875 
	C460.111176,544.182129 460.123627,560.179443 460.123169,576.176697 
	C460.122925,583.652710 460.122681,583.670105 467.411530,583.671143 
	C517.569763,583.678528 567.728027,583.679199 617.886230,583.679077 
	C625.077576,583.679077 625.074646,583.671814 625.093689,590.771606 
	C625.121887,601.269775 625.172729,611.767883 625.179199,622.266052 
	C625.183167,628.717163 624.899353,629.069946 618.421875,629.082031 
	C583.594482,629.147156 548.766968,629.172974 513.939514,629.188965 
	C481.778259,629.203674 449.617035,629.190796 417.455780,629.185669 
	C411.336456,629.184753 410.985962,628.872986 410.984680,622.674988 
	C410.967560,540.355652 410.961395,458.036346 410.967621,375.717010 
	C410.968109,369.350250 411.273773,369.031525 417.862061,369.064362 
	C446.018402,369.204651 474.174500,369.392944 502.807404,369.562897 
z"/>
<path fill="#000000" opacity="1.000000" stroke="none" 
	d="
M667.804321,711.851074 
	C630.474304,738.522888 590.039001,756.795654 544.586487,762.881897 
	C537.497742,763.831055 530.352112,764.347534 523.245422,765.173218 
	C519.846802,765.568176 518.479431,764.420471 518.453796,760.827271 
	C518.386047,751.336792 518.078308,741.844177 517.638123,732.362976 
	C517.523743,729.900940 518.821716,726.071655 514.282410,726.017883 
	C510.100769,725.968262 508.443451,728.900696 508.267242,732.592224 
	C507.846466,741.407288 507.359558,750.234009 507.432770,759.051636 
	C507.471893,763.767700 506.194336,765.462646 501.225250,765.218811 
	C456.079071,763.003845 414.020050,750.873962 375.638245,726.689392 
	C367.682068,721.676147 367.665619,721.634338 373.636902,714.523376 
	C378.993042,708.144897 384.467346,701.865295 389.790039,695.459412 
	C391.688629,693.174500 393.267517,692.692810 396.061737,694.439941 
	C421.962952,710.634827 449.943115,721.244507 480.318787,725.262268 
	C486.758026,726.114075 493.198364,726.812256 499.707458,726.990540 
	C503.316711,727.089294 504.920959,725.965820 504.769958,722.180115 
	C504.570953,717.189453 504.831970,712.181885 504.707855,707.186218 
	C504.629791,704.044556 505.798492,702.808960 509.054840,702.673340 
	C521.862000,702.140015 521.475952,702.052795 521.702515,714.640808 
	C521.949036,728.335144 519.981628,727.922302 534.961304,726.155029 
	C578.774963,720.986084 617.006897,703.000244 650.571655,674.739868 
	C656.925659,669.390076 658.226685,670.939453 652.916260,662.781616 
	C659.133057,657.191711 665.399780,651.541626 671.685974,645.913269 
	C673.829346,643.994141 675.434937,645.770752 676.944397,646.909668 
	C686.253601,653.934265 695.497864,661.044861 704.787720,668.095154 
	C706.358582,669.287292 707.798401,670.740845 710.220154,671.252197 
	C716.453979,664.732117 721.320618,656.996948 726.443665,649.466431 
	C729.629211,644.783936 732.644592,639.986023 735.785034,635.272400 
	C739.240784,630.085632 739.321533,629.996948 733.619690,626.932373 
	C721.442322,620.387390 709.201355,613.960510 696.983582,607.490845 
	C695.806335,606.867493 694.593628,606.310547 693.422058,605.677002 
	C687.575745,602.515991 686.921448,598.852600 691.139771,593.648071 
	C692.492493,591.979065 693.735779,592.863159 695.108398,593.437927 
	C705.273560,597.695007 705.566040,597.794067 709.320496,587.340454 
	C732.416443,523.034607 726.853455,461.446167 691.428955,402.788391 
	C690.405273,401.093384 689.195740,399.510590 687.532349,397.088318 
	C703.079834,387.881287 718.419189,378.797516 733.220764,370.032227 
	C735.428040,370.595581 735.770020,371.838165 736.249512,372.824768 
	C752.504883,406.273956 764.772339,440.995575 769.078735,478.145813 
	C774.962891,528.908325 765.998352,576.988281 744.699280,623.456726 
	C734.333679,646.071472 720.769592,665.598450 702.677612,682.293396 
	C701.362427,683.507019 700.365906,685.181213 697.773376,685.650269 
	C691.099792,678.472229 684.205505,671.059631 677.317261,663.641357 
	C676.864380,663.153625 676.462341,662.618835 676.030029,662.111633 
	C671.589722,656.901978 665.637146,657.854065 662.947449,664.180542 
	C662.001953,666.404419 663.686951,667.667297 664.811584,668.937256 
	C671.326233,676.293945 677.960266,683.544800 684.532715,690.850647 
	C685.736755,692.189026 687.393311,693.192017 687.980652,695.601868 
	C682.071533,701.607300 674.931396,706.441650 667.804321,711.851074 
M731.991577,420.690430 
	C742.369324,454.594299 746.854004,489.199768 744.345764,524.634033 
	C742.442505,551.521973 738.031616,577.862000 726.378601,602.465820 
	C724.141846,607.188477 724.927612,609.851257 729.697754,611.567200 
	C730.317322,611.790039 730.873474,612.189453 731.459106,612.506836 
	C736.779907,615.390259 736.765259,615.383911 739.223328,609.639709 
	C755.161438,572.393372 761.015137,533.532593 759.159851,493.135376 
	C757.491882,456.816681 748.414368,422.565552 733.333496,389.712189 
	C732.473145,387.838043 732.073547,385.496918 729.518494,384.625916 
	C727.970825,385.507141 726.458008,386.578247 724.789429,387.278046 
	C720.409912,389.114746 719.897949,391.652039 722.071716,395.869720 
	C726.036438,403.562439 729.193176,411.642822 731.991577,420.690430 
z"/>
<path fill="#000000" opacity="1.000000" stroke="none" 
	d="
M294.180969,484.969452 
	C292.456207,496.912781 292.456207,496.911896 303.998566,496.922791 
	C307.997772,496.926575 311.998138,496.996857 315.995850,496.923401 
	C319.195587,496.864655 320.470795,498.266235 320.285950,501.484772 
	C320.066498,505.306610 320.133850,509.147186 320.146759,512.979370 
	C320.156525,515.875610 319.155334,517.317810 315.927307,516.787170 
	C309.952301,515.804993 303.959229,516.935303 297.975830,516.898193 
	C294.185791,516.874695 293.044037,518.515381 293.259094,522.076599 
	C294.215973,537.924011 297.018951,553.435242 301.630005,568.609070 
	C314.862854,612.155212 338.676575,648.799561 373.547943,678.118530 
	C376.567017,680.656860 376.860535,682.557739 374.428711,685.499207 
	C368.591766,692.559204 362.762238,699.635437 357.228485,706.931702 
	C354.472137,710.565979 352.397858,710.236816 349.198914,707.454773 
	C331.885895,692.397949 316.678802,675.530212 303.502808,656.714539 
	C279.853088,622.942261 265.060120,585.668152 258.839386,545.019653 
	C251.963867,500.092529 258.824036,456.871979 275.734985,414.960663 
	C290.913513,377.342987 314.475311,345.640045 343.653412,317.843170 
	C344.473511,317.061890 345.499573,316.496826 346.889374,315.501770 
	C354.407074,325.156769 361.814636,334.670319 369.563629,344.622375 
	C362.594330,350.472687 356.292023,356.585876 350.424896,363.164612 
	C321.086853,396.060883 302.525513,434.120026 295.197052,477.615814 
	C294.810883,479.907959 294.536102,482.218842 294.180969,484.969452 
M264.572357,512.045532 
	C264.124573,515.597290 266.517792,515.472168 268.993744,515.726807 
	C282.553802,517.121094 295.697632,512.977356 309.136292,512.826477 
	C311.952118,512.794861 312.614594,510.807648 312.724915,508.384949 
	C312.852631,505.580536 311.066132,505.183258 308.888550,504.962006 
	C296.602295,503.713745 284.276886,504.512238 271.972809,504.220184 
	C264.688477,504.047272 264.685913,504.155029 264.572357,512.045532 
z"/>
<path fill="#000000" opacity="1.000000" stroke="none" 
	d="
M368.966980,299.926636 
	C405.285431,275.342987 445.089050,260.921021 488.147736,256.001526 
	C527.130859,251.547714 564.760010,258.292877 601.315125,272.072418 
	C624.405151,280.776245 645.742065,292.580597 665.571167,307.193695 
	C671.656006,311.677917 671.621094,311.674622 666.776550,317.185974 
	C661.057617,323.692047 655.376038,330.230988 649.693054,336.768524 
	C647.868042,338.868011 646.312134,339.977264 643.499817,337.645569 
	C618.162170,316.637909 589.186340,302.958557 557.268433,295.308990 
	C547.387329,292.940857 537.412720,291.172913 527.291138,290.155090 
	C522.867065,289.710266 520.501892,290.977753 520.998230,295.767548 
	C521.032349,296.096527 520.990906,296.433472 520.982300,296.766663 
	C520.729797,306.492310 518.742432,308.000183 508.893860,306.217926 
	C506.872955,305.852203 505.960785,304.844818 505.891418,302.925934 
	C505.819244,300.928162 505.796783,298.928162 505.781219,296.928894 
	C505.718079,288.827362 505.635376,288.654633 497.702972,289.436493 
	C456.408508,293.506714 418.425659,306.513794 385.028992,331.630035 
	C381.808014,334.052368 380.168182,333.630157 377.968414,330.438690 
	C373.432922,323.858643 368.724182,317.367950 363.647278,311.202332 
	C360.538391,307.426788 360.583832,304.979340 365.000580,302.722076 
	C366.320465,302.047546 367.449829,301.000244 368.966980,299.926636 
z"/>
<path fill="#000000" opacity="1.000000" stroke="none" 
	d="
M681.601074,320.011719 
	C688.691650,322.980133 692.746460,329.153717 697.653442,334.362091 
	C698.836365,335.617706 697.293579,336.720551 696.353943,337.645844 
	C688.540222,345.340302 680.684937,352.993530 672.954102,360.770477 
	C670.668823,363.069397 669.000122,363.136383 666.892090,360.553009 
	C664.269714,357.339417 661.450134,354.263641 658.496887,351.350281 
	C656.036560,348.923157 656.293579,346.970703 658.547607,344.591309 
	C666.199463,336.513702 673.740051,328.330597 681.601074,320.011719 
z"/>
</svg>